<mxfile host="app.diagrams.net" modified="2023-11-16T16:45:49.480Z" agent="Mozilla/5.0 (Windows NT 10.0; Win64; x64) AppleWebKit/537.36 (KHTML, like Gecko) Chrome/119.0.0.0 Safari/537.36 Edg/119.0.0.0" etag="CUcCxVszlzuTih2M7IYY" version="22.1.2" type="google">
  <diagram name="Page-1" id="qncQJ6b02yWdnLwTCf11">
    <mxGraphModel grid="1" page="1" gridSize="10" guides="1" tooltips="1" connect="1" arrows="1" fold="1" pageScale="1" pageWidth="850" pageHeight="1100" math="0" shadow="0">
      <root>
        <mxCell id="0" />
        <mxCell id="1" parent="0" />
        <mxCell id="86KTdg9rSpqO78X9JeLp-89" style="rounded=0;orthogonalLoop=1;jettySize=auto;html=1;exitX=0;exitY=0;exitDx=0;exitDy=0;entryX=1;entryY=0.5;entryDx=0;entryDy=0;endArrow=none;endFill=0;" edge="1" parent="1" source="86KTdg9rSpqO78X9JeLp-1" target="86KTdg9rSpqO78X9JeLp-5">
          <mxGeometry relative="1" as="geometry" />
        </mxCell>
        <mxCell id="86KTdg9rSpqO78X9JeLp-90" style="rounded=0;orthogonalLoop=1;jettySize=auto;html=1;exitX=0;exitY=0.5;exitDx=0;exitDy=0;entryX=1;entryY=0.5;entryDx=0;entryDy=0;endArrow=none;endFill=0;" edge="1" parent="1" source="86KTdg9rSpqO78X9JeLp-1" target="86KTdg9rSpqO78X9JeLp-9">
          <mxGeometry relative="1" as="geometry" />
        </mxCell>
        <mxCell id="86KTdg9rSpqO78X9JeLp-94" style="rounded=0;orthogonalLoop=1;jettySize=auto;html=1;exitX=1;exitY=0.5;exitDx=0;exitDy=0;entryX=0;entryY=0.5;entryDx=0;entryDy=0;endArrow=none;endFill=0;" edge="1" parent="1" source="86KTdg9rSpqO78X9JeLp-1" target="86KTdg9rSpqO78X9JeLp-7">
          <mxGeometry relative="1" as="geometry" />
        </mxCell>
        <mxCell id="86KTdg9rSpqO78X9JeLp-95" style="rounded=0;orthogonalLoop=1;jettySize=auto;html=1;exitX=1;exitY=0;exitDx=0;exitDy=0;entryX=0;entryY=0.5;entryDx=0;entryDy=0;endArrow=none;endFill=0;" edge="1" parent="1" source="86KTdg9rSpqO78X9JeLp-1" target="86KTdg9rSpqO78X9JeLp-8">
          <mxGeometry relative="1" as="geometry" />
        </mxCell>
        <mxCell id="86KTdg9rSpqO78X9JeLp-1" value="User" style="whiteSpace=wrap;html=1;align=center;" vertex="1" parent="1">
          <mxGeometry x="195" y="630" width="50" height="30" as="geometry" />
        </mxCell>
        <mxCell id="86KTdg9rSpqO78X9JeLp-72" style="rounded=0;orthogonalLoop=1;jettySize=auto;html=1;exitX=0.25;exitY=0;exitDx=0;exitDy=0;entryX=0.5;entryY=1;entryDx=0;entryDy=0;endArrow=none;endFill=0;" edge="1" parent="1" source="86KTdg9rSpqO78X9JeLp-2" target="86KTdg9rSpqO78X9JeLp-16">
          <mxGeometry relative="1" as="geometry" />
        </mxCell>
        <mxCell id="86KTdg9rSpqO78X9JeLp-73" style="rounded=0;orthogonalLoop=1;jettySize=auto;html=1;exitX=0;exitY=0;exitDx=0;exitDy=0;entryX=1;entryY=1;entryDx=0;entryDy=0;endArrow=none;endFill=0;" edge="1" parent="1" source="86KTdg9rSpqO78X9JeLp-2" target="86KTdg9rSpqO78X9JeLp-20">
          <mxGeometry relative="1" as="geometry" />
        </mxCell>
        <mxCell id="86KTdg9rSpqO78X9JeLp-74" style="rounded=0;orthogonalLoop=1;jettySize=auto;html=1;exitX=0;exitY=1;exitDx=0;exitDy=0;entryX=1;entryY=0.5;entryDx=0;entryDy=0;endArrow=none;endFill=0;" edge="1" parent="1" source="86KTdg9rSpqO78X9JeLp-2" target="86KTdg9rSpqO78X9JeLp-23">
          <mxGeometry relative="1" as="geometry" />
        </mxCell>
        <mxCell id="86KTdg9rSpqO78X9JeLp-75" style="rounded=0;orthogonalLoop=1;jettySize=auto;html=1;exitX=0.25;exitY=1;exitDx=0;exitDy=0;entryX=1;entryY=0;entryDx=0;entryDy=0;endArrow=none;endFill=0;" edge="1" parent="1" source="86KTdg9rSpqO78X9JeLp-2" target="86KTdg9rSpqO78X9JeLp-22">
          <mxGeometry relative="1" as="geometry" />
        </mxCell>
        <mxCell id="86KTdg9rSpqO78X9JeLp-76" style="rounded=0;orthogonalLoop=1;jettySize=auto;html=1;exitX=0.75;exitY=1;exitDx=0;exitDy=0;entryX=0;entryY=0;entryDx=0;entryDy=0;endArrow=none;endFill=0;" edge="1" parent="1" source="86KTdg9rSpqO78X9JeLp-2" target="86KTdg9rSpqO78X9JeLp-21">
          <mxGeometry relative="1" as="geometry" />
        </mxCell>
        <mxCell id="86KTdg9rSpqO78X9JeLp-77" style="rounded=0;orthogonalLoop=1;jettySize=auto;html=1;exitX=1;exitY=1;exitDx=0;exitDy=0;entryX=0;entryY=0.5;entryDx=0;entryDy=0;endArrow=none;endFill=0;" edge="1" parent="1" source="86KTdg9rSpqO78X9JeLp-2" target="86KTdg9rSpqO78X9JeLp-18">
          <mxGeometry relative="1" as="geometry" />
        </mxCell>
        <mxCell id="86KTdg9rSpqO78X9JeLp-78" style="rounded=0;orthogonalLoop=1;jettySize=auto;html=1;exitX=0.75;exitY=0;exitDx=0;exitDy=0;entryX=0;entryY=1;entryDx=0;entryDy=0;endArrow=none;endFill=0;" edge="1" parent="1" source="86KTdg9rSpqO78X9JeLp-2" target="86KTdg9rSpqO78X9JeLp-17">
          <mxGeometry relative="1" as="geometry" />
        </mxCell>
        <mxCell id="86KTdg9rSpqO78X9JeLp-2" value="PrintOrder" style="whiteSpace=wrap;html=1;align=center;" vertex="1" parent="1">
          <mxGeometry x="180" y="345" width="80" height="30" as="geometry" />
        </mxCell>
        <mxCell id="86KTdg9rSpqO78X9JeLp-79" style="rounded=0;orthogonalLoop=1;jettySize=auto;html=1;exitX=0.25;exitY=0;exitDx=0;exitDy=0;entryX=0.5;entryY=1;entryDx=0;entryDy=0;endArrow=none;endFill=0;" edge="1" parent="1" source="86KTdg9rSpqO78X9JeLp-3" target="86KTdg9rSpqO78X9JeLp-31">
          <mxGeometry relative="1" as="geometry" />
        </mxCell>
        <mxCell id="86KTdg9rSpqO78X9JeLp-80" style="rounded=0;orthogonalLoop=1;jettySize=auto;html=1;exitX=0;exitY=0.5;exitDx=0;exitDy=0;entryX=1;entryY=0.5;entryDx=0;entryDy=0;endArrow=none;endFill=0;" edge="1" parent="1" source="86KTdg9rSpqO78X9JeLp-3" target="86KTdg9rSpqO78X9JeLp-34">
          <mxGeometry relative="1" as="geometry" />
        </mxCell>
        <mxCell id="86KTdg9rSpqO78X9JeLp-81" style="rounded=0;orthogonalLoop=1;jettySize=auto;html=1;exitX=1;exitY=0.5;exitDx=0;exitDy=0;entryX=0;entryY=0.5;entryDx=0;entryDy=0;endArrow=none;endFill=0;" edge="1" parent="1" source="86KTdg9rSpqO78X9JeLp-3" target="86KTdg9rSpqO78X9JeLp-33">
          <mxGeometry relative="1" as="geometry" />
        </mxCell>
        <mxCell id="86KTdg9rSpqO78X9JeLp-82" style="rounded=0;orthogonalLoop=1;jettySize=auto;html=1;exitX=0.75;exitY=0;exitDx=0;exitDy=0;entryX=0.5;entryY=1;entryDx=0;entryDy=0;endArrow=none;endFill=0;" edge="1" parent="1" source="86KTdg9rSpqO78X9JeLp-3" target="86KTdg9rSpqO78X9JeLp-32">
          <mxGeometry relative="1" as="geometry" />
        </mxCell>
        <mxCell id="86KTdg9rSpqO78X9JeLp-3" value="Printer" style="whiteSpace=wrap;html=1;align=center;" vertex="1" parent="1">
          <mxGeometry x="190" y="95" width="60" height="30" as="geometry" />
        </mxCell>
        <mxCell id="86KTdg9rSpqO78X9JeLp-5" value="UserID" style="ellipse;whiteSpace=wrap;html=1;align=center;fontStyle=4;" vertex="1" parent="1">
          <mxGeometry x="95" y="591" width="60" height="30" as="geometry" />
        </mxCell>
        <mxCell id="86KTdg9rSpqO78X9JeLp-7" value="Name" style="ellipse;whiteSpace=wrap;html=1;align=center;" vertex="1" parent="1">
          <mxGeometry x="277.5" y="630" width="60" height="30" as="geometry" />
        </mxCell>
        <mxCell id="86KTdg9rSpqO78X9JeLp-8" value="DOB" style="ellipse;whiteSpace=wrap;html=1;align=center;" vertex="1" parent="1">
          <mxGeometry x="287.5" y="591" width="50" height="30" as="geometry" />
        </mxCell>
        <mxCell id="86KTdg9rSpqO78X9JeLp-9" value="Email" style="ellipse;whiteSpace=wrap;html=1;align=center;" vertex="1" parent="1">
          <mxGeometry x="100" y="630" width="50" height="30" as="geometry" />
        </mxCell>
        <mxCell id="86KTdg9rSpqO78X9JeLp-10" value="Address" style="ellipse;whiteSpace=wrap;html=1;align=center;" vertex="1" parent="1">
          <mxGeometry x="225" y="570" width="70" height="30" as="geometry" />
        </mxCell>
        <mxCell id="86KTdg9rSpqO78X9JeLp-12" value="HashedPassword" style="ellipse;whiteSpace=wrap;html=1;align=center;" vertex="1" parent="1">
          <mxGeometry x="160" y="710" width="120" height="30" as="geometry" />
        </mxCell>
        <mxCell id="86KTdg9rSpqO78X9JeLp-14" value="AvatarLink" style="ellipse;whiteSpace=wrap;html=1;align=center;" vertex="1" parent="1">
          <mxGeometry x="250" y="666" width="80" height="30" as="geometry" />
        </mxCell>
        <mxCell id="86KTdg9rSpqO78X9JeLp-15" value="Page balance" style="ellipse;whiteSpace=wrap;html=1;align=center;" vertex="1" parent="1">
          <mxGeometry x="92.5" y="666" width="100" height="30" as="geometry" />
        </mxCell>
        <mxCell id="86KTdg9rSpqO78X9JeLp-16" value="PrintOrderID" style="ellipse;whiteSpace=wrap;html=1;align=center;fontStyle=4;" vertex="1" parent="1">
          <mxGeometry x="120" y="269.5" width="90" height="30" as="geometry" />
        </mxCell>
        <mxCell id="86KTdg9rSpqO78X9JeLp-17" value="PrintDate/Time" style="ellipse;whiteSpace=wrap;html=1;align=center;" vertex="1" parent="1">
          <mxGeometry x="240" y="295" width="100" height="30" as="geometry" />
        </mxCell>
        <mxCell id="86KTdg9rSpqO78X9JeLp-18" value="FileName" style="ellipse;whiteSpace=wrap;html=1;align=center;" vertex="1" parent="1">
          <mxGeometry x="277.5" y="367.5" width="70" height="30" as="geometry" />
        </mxCell>
        <mxCell id="86KTdg9rSpqO78X9JeLp-20" value="PickupDate/Time" style="ellipse;whiteSpace=wrap;html=1;align=center;" vertex="1" parent="1">
          <mxGeometry x="50" y="315" width="110" height="30" as="geometry" />
        </mxCell>
        <mxCell id="86KTdg9rSpqO78X9JeLp-21" value="TotalPageUsed" style="ellipse;whiteSpace=wrap;html=1;align=center;dashed=1;" vertex="1" parent="1">
          <mxGeometry x="247.5" y="410" width="100" height="30" as="geometry" />
        </mxCell>
        <mxCell id="86KTdg9rSpqO78X9JeLp-22" value="PickupMethod" style="ellipse;whiteSpace=wrap;html=1;align=center;" vertex="1" parent="1">
          <mxGeometry x="91" y="410" width="100" height="30" as="geometry" />
        </mxCell>
        <mxCell id="86KTdg9rSpqO78X9JeLp-23" value="Status" style="ellipse;whiteSpace=wrap;html=1;align=center;" vertex="1" parent="1">
          <mxGeometry x="95" y="367.5" width="60" height="30" as="geometry" />
        </mxCell>
        <mxCell id="86KTdg9rSpqO78X9JeLp-26" value="PaperSize" style="ellipse;whiteSpace=wrap;html=1;align=center;" vertex="1" parent="1">
          <mxGeometry x="530" y="300" width="80" height="30" as="geometry" />
        </mxCell>
        <mxCell id="86KTdg9rSpqO78X9JeLp-27" value="Orientation" style="ellipse;whiteSpace=wrap;html=1;align=center;" vertex="1" parent="1">
          <mxGeometry x="640" y="299.5" width="80" height="30" as="geometry" />
        </mxCell>
        <mxCell id="86KTdg9rSpqO78X9JeLp-28" value="PrintSide" style="ellipse;whiteSpace=wrap;html=1;align=center;" vertex="1" parent="1">
          <mxGeometry x="690" y="345" width="70" height="30" as="geometry" />
        </mxCell>
        <mxCell id="86KTdg9rSpqO78X9JeLp-29" value="PrintColor" style="ellipse;whiteSpace=wrap;html=1;align=center;" vertex="1" parent="1">
          <mxGeometry x="530" y="390" width="80" height="30" as="geometry" />
        </mxCell>
        <mxCell id="86KTdg9rSpqO78X9JeLp-30" value="PageSelected" style="ellipse;whiteSpace=wrap;html=1;align=center;" vertex="1" parent="1">
          <mxGeometry x="630" y="390" width="100" height="30" as="geometry" />
        </mxCell>
        <mxCell id="86KTdg9rSpqO78X9JeLp-31" value="PrinterID" style="ellipse;whiteSpace=wrap;html=1;align=center;fontStyle=4;" vertex="1" parent="1">
          <mxGeometry x="140" y="40" width="70" height="30" as="geometry" />
        </mxCell>
        <mxCell id="86KTdg9rSpqO78X9JeLp-32" value="Name" style="ellipse;whiteSpace=wrap;html=1;align=center;" vertex="1" parent="1">
          <mxGeometry x="230" y="40" width="60" height="30" as="geometry" />
        </mxCell>
        <mxCell id="86KTdg9rSpqO78X9JeLp-33" value="Location" style="ellipse;whiteSpace=wrap;html=1;align=center;" vertex="1" parent="1">
          <mxGeometry x="270" y="95" width="70" height="30" as="geometry" />
        </mxCell>
        <mxCell id="86KTdg9rSpqO78X9JeLp-34" value="Status" style="ellipse;whiteSpace=wrap;html=1;align=center;" vertex="1" parent="1">
          <mxGeometry x="100" y="95" width="60" height="30" as="geometry" />
        </mxCell>
        <mxCell id="86KTdg9rSpqO78X9JeLp-83" style="rounded=0;orthogonalLoop=1;jettySize=auto;html=1;exitX=0.25;exitY=0;exitDx=0;exitDy=0;entryX=0.5;entryY=1;entryDx=0;entryDy=0;endArrow=none;endFill=0;" edge="1" parent="1" source="86KTdg9rSpqO78X9JeLp-35" target="86KTdg9rSpqO78X9JeLp-26">
          <mxGeometry relative="1" as="geometry" />
        </mxCell>
        <mxCell id="86KTdg9rSpqO78X9JeLp-84" style="rounded=0;orthogonalLoop=1;jettySize=auto;html=1;exitX=0.75;exitY=0;exitDx=0;exitDy=0;entryX=0.5;entryY=1;entryDx=0;entryDy=0;endArrow=none;endFill=0;" edge="1" parent="1" source="86KTdg9rSpqO78X9JeLp-35" target="86KTdg9rSpqO78X9JeLp-27">
          <mxGeometry relative="1" as="geometry" />
        </mxCell>
        <mxCell id="86KTdg9rSpqO78X9JeLp-85" style="rounded=0;orthogonalLoop=1;jettySize=auto;html=1;exitX=1;exitY=0.5;exitDx=0;exitDy=0;entryX=0;entryY=0.5;entryDx=0;entryDy=0;endArrow=none;endFill=0;" edge="1" parent="1" source="86KTdg9rSpqO78X9JeLp-35" target="86KTdg9rSpqO78X9JeLp-28">
          <mxGeometry relative="1" as="geometry" />
        </mxCell>
        <mxCell id="86KTdg9rSpqO78X9JeLp-87" style="rounded=0;orthogonalLoop=1;jettySize=auto;html=1;exitX=0.75;exitY=1;exitDx=0;exitDy=0;entryX=0.5;entryY=0;entryDx=0;entryDy=0;endArrow=none;endFill=0;" edge="1" parent="1" source="86KTdg9rSpqO78X9JeLp-35" target="86KTdg9rSpqO78X9JeLp-30">
          <mxGeometry relative="1" as="geometry" />
        </mxCell>
        <mxCell id="86KTdg9rSpqO78X9JeLp-88" style="rounded=0;orthogonalLoop=1;jettySize=auto;html=1;exitX=0.25;exitY=1;exitDx=0;exitDy=0;entryX=0.5;entryY=0;entryDx=0;entryDy=0;endArrow=none;endFill=0;" edge="1" parent="1" source="86KTdg9rSpqO78X9JeLp-35" target="86KTdg9rSpqO78X9JeLp-29">
          <mxGeometry relative="1" as="geometry" />
        </mxCell>
        <mxCell id="86KTdg9rSpqO78X9JeLp-35" value="PrintDetail" style="shape=ext;margin=3;double=1;whiteSpace=wrap;html=1;align=center;" vertex="1" parent="1">
          <mxGeometry x="580" y="344.5" width="80" height="30" as="geometry" />
        </mxCell>
        <mxCell id="86KTdg9rSpqO78X9JeLp-36" value="Has" style="shape=rhombus;double=1;perimeter=rhombusPerimeter;whiteSpace=wrap;html=1;align=center;" vertex="1" parent="1">
          <mxGeometry x="390" y="337.5" width="70" height="45" as="geometry" />
        </mxCell>
        <mxCell id="86KTdg9rSpqO78X9JeLp-52" value="" style="shape=link;html=1;rounded=0;exitX=1;exitY=0.5;exitDx=0;exitDy=0;entryX=0;entryY=0.5;entryDx=0;entryDy=0;" edge="1" parent="1" source="86KTdg9rSpqO78X9JeLp-2" target="86KTdg9rSpqO78X9JeLp-36">
          <mxGeometry relative="1" as="geometry">
            <mxPoint x="240" y="460" as="sourcePoint" />
            <mxPoint x="400" y="460" as="targetPoint" />
          </mxGeometry>
        </mxCell>
        <mxCell id="86KTdg9rSpqO78X9JeLp-53" value="1" style="resizable=0;html=1;whiteSpace=wrap;align=right;verticalAlign=bottom;" connectable="0" vertex="1" parent="86KTdg9rSpqO78X9JeLp-52">
          <mxGeometry x="1" relative="1" as="geometry">
            <mxPoint x="-20" y="-2" as="offset" />
          </mxGeometry>
        </mxCell>
        <mxCell id="86KTdg9rSpqO78X9JeLp-54" value="" style="shape=link;html=1;rounded=0;exitX=0;exitY=0.5;exitDx=0;exitDy=0;entryX=1;entryY=0.5;entryDx=0;entryDy=0;" edge="1" parent="1" source="86KTdg9rSpqO78X9JeLp-35" target="86KTdg9rSpqO78X9JeLp-36">
          <mxGeometry relative="1" as="geometry">
            <mxPoint x="450" y="407.5" as="sourcePoint" />
            <mxPoint x="580" y="407.5" as="targetPoint" />
          </mxGeometry>
        </mxCell>
        <mxCell id="86KTdg9rSpqO78X9JeLp-55" value="1" style="resizable=0;html=1;whiteSpace=wrap;align=right;verticalAlign=bottom;" connectable="0" vertex="1" parent="86KTdg9rSpqO78X9JeLp-54">
          <mxGeometry x="1" relative="1" as="geometry">
            <mxPoint x="20" y="-2" as="offset" />
          </mxGeometry>
        </mxCell>
        <mxCell id="86KTdg9rSpqO78X9JeLp-57" value="In" style="shape=rhombus;perimeter=rhombusPerimeter;whiteSpace=wrap;html=1;align=center;" vertex="1" parent="1">
          <mxGeometry x="192.5" y="200" width="55" height="35" as="geometry" />
        </mxCell>
        <mxCell id="86KTdg9rSpqO78X9JeLp-58" value="" style="endArrow=none;html=1;rounded=0;exitX=0.5;exitY=1;exitDx=0;exitDy=0;entryX=0.5;entryY=0;entryDx=0;entryDy=0;" edge="1" parent="1" source="86KTdg9rSpqO78X9JeLp-3" target="86KTdg9rSpqO78X9JeLp-57">
          <mxGeometry relative="1" as="geometry">
            <mxPoint x="80" y="260" as="sourcePoint" />
            <mxPoint x="240" y="260" as="targetPoint" />
          </mxGeometry>
        </mxCell>
        <mxCell id="86KTdg9rSpqO78X9JeLp-59" value="1" style="resizable=0;html=1;whiteSpace=wrap;align=right;verticalAlign=bottom;" connectable="0" vertex="1" parent="86KTdg9rSpqO78X9JeLp-58">
          <mxGeometry x="1" relative="1" as="geometry">
            <mxPoint x="-10" y="-10" as="offset" />
          </mxGeometry>
        </mxCell>
        <mxCell id="86KTdg9rSpqO78X9JeLp-60" value="" style="shape=link;html=1;rounded=0;exitX=0.5;exitY=0;exitDx=0;exitDy=0;entryX=0.5;entryY=1;entryDx=0;entryDy=0;" edge="1" parent="1" source="86KTdg9rSpqO78X9JeLp-2" target="86KTdg9rSpqO78X9JeLp-57">
          <mxGeometry relative="1" as="geometry">
            <mxPoint x="80" y="220" as="sourcePoint" />
            <mxPoint x="240" y="220" as="targetPoint" />
          </mxGeometry>
        </mxCell>
        <mxCell id="86KTdg9rSpqO78X9JeLp-61" value="N" style="resizable=0;html=1;whiteSpace=wrap;align=right;verticalAlign=bottom;" connectable="0" vertex="1" parent="86KTdg9rSpqO78X9JeLp-60">
          <mxGeometry x="1" relative="1" as="geometry">
            <mxPoint x="-10" y="25" as="offset" />
          </mxGeometry>
        </mxCell>
        <mxCell id="86KTdg9rSpqO78X9JeLp-67" value="Made by" style="shape=rhombus;perimeter=rhombusPerimeter;whiteSpace=wrap;html=1;align=center;" vertex="1" parent="1">
          <mxGeometry x="176.5" y="480" width="87" height="43" as="geometry" />
        </mxCell>
        <mxCell id="86KTdg9rSpqO78X9JeLp-68" value="" style="shape=link;html=1;rounded=0;exitX=0.5;exitY=1;exitDx=0;exitDy=0;entryX=0.5;entryY=0;entryDx=0;entryDy=0;" edge="1" parent="1" source="86KTdg9rSpqO78X9JeLp-2" target="86KTdg9rSpqO78X9JeLp-67">
          <mxGeometry relative="1" as="geometry">
            <mxPoint x="210" y="480" as="sourcePoint" />
            <mxPoint x="340" y="480" as="targetPoint" />
          </mxGeometry>
        </mxCell>
        <mxCell id="86KTdg9rSpqO78X9JeLp-69" value="N" style="resizable=0;html=1;whiteSpace=wrap;align=right;verticalAlign=bottom;" connectable="0" vertex="1" parent="86KTdg9rSpqO78X9JeLp-68">
          <mxGeometry x="1" relative="1" as="geometry">
            <mxPoint x="-10" y="-11" as="offset" />
          </mxGeometry>
        </mxCell>
        <mxCell id="86KTdg9rSpqO78X9JeLp-70" value="" style="endArrow=none;html=1;rounded=0;exitX=0.5;exitY=0;exitDx=0;exitDy=0;entryX=0.5;entryY=1;entryDx=0;entryDy=0;" edge="1" parent="1" source="86KTdg9rSpqO78X9JeLp-1" target="86KTdg9rSpqO78X9JeLp-67">
          <mxGeometry relative="1" as="geometry">
            <mxPoint x="-90" y="428.5" as="sourcePoint" />
            <mxPoint x="25" y="427.5" as="targetPoint" />
          </mxGeometry>
        </mxCell>
        <mxCell id="86KTdg9rSpqO78X9JeLp-71" value="1" style="resizable=0;html=1;whiteSpace=wrap;align=right;verticalAlign=bottom;" connectable="0" vertex="1" parent="86KTdg9rSpqO78X9JeLp-70">
          <mxGeometry x="1" relative="1" as="geometry">
            <mxPoint x="-10" y="27" as="offset" />
          </mxGeometry>
        </mxCell>
        <mxCell id="86KTdg9rSpqO78X9JeLp-97" style="rounded=0;orthogonalLoop=1;jettySize=auto;html=1;exitX=0.5;exitY=1;exitDx=0;exitDy=0;entryX=0.5;entryY=0;entryDx=0;entryDy=0;endArrow=none;endFill=0;" edge="1" parent="1" source="86KTdg9rSpqO78X9JeLp-1" target="86KTdg9rSpqO78X9JeLp-12">
          <mxGeometry relative="1" as="geometry">
            <mxPoint x="220.5" y="680" as="sourcePoint" />
            <mxPoint x="280.5" y="695" as="targetPoint" />
          </mxGeometry>
        </mxCell>
        <mxCell id="86KTdg9rSpqO78X9JeLp-98" style="rounded=0;orthogonalLoop=1;jettySize=auto;html=1;exitX=1;exitY=1;exitDx=0;exitDy=0;entryX=0;entryY=0;entryDx=0;entryDy=0;endArrow=none;endFill=0;" edge="1" parent="1" source="86KTdg9rSpqO78X9JeLp-1" target="86KTdg9rSpqO78X9JeLp-14">
          <mxGeometry relative="1" as="geometry">
            <mxPoint x="230.5" y="675" as="sourcePoint" />
            <mxPoint x="290.5" y="690" as="targetPoint" />
          </mxGeometry>
        </mxCell>
        <mxCell id="86KTdg9rSpqO78X9JeLp-99" style="rounded=0;orthogonalLoop=1;jettySize=auto;html=1;exitX=0.75;exitY=0;exitDx=0;exitDy=0;entryX=0.5;entryY=1;entryDx=0;entryDy=0;endArrow=none;endFill=0;" edge="1" parent="1" source="86KTdg9rSpqO78X9JeLp-1" target="86KTdg9rSpqO78X9JeLp-10">
          <mxGeometry relative="1" as="geometry">
            <mxPoint x="245" y="629.39" as="sourcePoint" />
            <mxPoint x="293" y="629.39" as="targetPoint" />
          </mxGeometry>
        </mxCell>
        <mxCell id="86KTdg9rSpqO78X9JeLp-100" style="rounded=0;orthogonalLoop=1;jettySize=auto;html=1;exitX=0;exitY=1;exitDx=0;exitDy=0;entryX=1;entryY=0;entryDx=0;entryDy=0;endArrow=none;endFill=0;" edge="1" parent="1" source="86KTdg9rSpqO78X9JeLp-1" target="86KTdg9rSpqO78X9JeLp-15">
          <mxGeometry relative="1" as="geometry">
            <mxPoint x="205" y="659.39" as="sourcePoint" />
            <mxPoint x="160" y="659.39" as="targetPoint" />
          </mxGeometry>
        </mxCell>
        <mxCell id="86KTdg9rSpqO78X9JeLp-106" value="Status" style="ellipse;whiteSpace=wrap;html=1;align=center;" vertex="1" parent="1">
          <mxGeometry x="150" y="570" width="60" height="30" as="geometry" />
        </mxCell>
        <mxCell id="86KTdg9rSpqO78X9JeLp-107" style="rounded=0;orthogonalLoop=1;jettySize=auto;html=1;exitX=0.25;exitY=0;exitDx=0;exitDy=0;entryX=0.5;entryY=1;entryDx=0;entryDy=0;endArrow=none;endFill=0;" edge="1" parent="1" source="86KTdg9rSpqO78X9JeLp-1" target="86KTdg9rSpqO78X9JeLp-106">
          <mxGeometry relative="1" as="geometry">
            <mxPoint x="214.57999999999998" y="675.79" as="sourcePoint" />
            <mxPoint x="194.57999999999998" y="685.79" as="targetPoint" />
          </mxGeometry>
        </mxCell>
        <mxCell id="86KTdg9rSpqO78X9JeLp-108" value="&lt;h1 style=&quot;text-align: justify; font-size: 13px;&quot;&gt;&lt;span style=&quot;font-weight: 400;&quot;&gt;&lt;font style=&quot;font-size: 13px;&quot;&gt;- Data liên quan tới config hệ thống có thể lưu và xử lý trực tiếp trong code do có ít thao tác lên tập data này&lt;/font&gt;&lt;/span&gt;&lt;/h1&gt;&lt;div style=&quot;text-align: justify; font-size: 13px;&quot;&gt;&lt;span style=&quot;font-weight: 400;&quot;&gt;&lt;font style=&quot;font-size: 13px;&quot;&gt;- Thuộc tính dẫn xuất TotalPageUsed trong PrintOrder được tính toán dựa trên thông tin trong PrintDetail (PaperSize, PageSelected, PrintColor)&lt;/font&gt;&lt;/span&gt;&lt;/div&gt;&lt;div style=&quot;text-align: justify; font-size: 13px;&quot;&gt;&lt;font style=&quot;font-size: 13px;&quot;&gt;&lt;br&gt;&lt;/font&gt;&lt;/div&gt;&lt;div style=&quot;text-align: justify; font-size: 13px;&quot;&gt;&lt;font style=&quot;font-size: 13px;&quot;&gt;- Để đơn giản, Us&lt;span style=&quot;background-color: initial;&quot;&gt;er chỉ cần lưu và mua số lượng trang A4 thay vì phân rõ thành từng loại trang.&amp;nbsp;&lt;/span&gt;&lt;span style=&quot;background-color: initial;&quot;&gt;Giả sử khi User in một trang A3, hệ thống sẽ tự động quy đổi và trừ 2 trang A4 trong PageBalance, tương tự với các loại trang khác.&amp;nbsp;&lt;/span&gt;&lt;/font&gt;&lt;/div&gt;&lt;div style=&quot;text-align: justify; font-size: 13px;&quot;&gt;&lt;font style=&quot;font-size: 13px;&quot;&gt;&lt;br&gt;&lt;/font&gt;&lt;/div&gt;&lt;div style=&quot;text-align: justify; font-size: 13px;&quot;&gt;&lt;font style=&quot;font-size: 13px;&quot;&gt;- Đối với in màu, một trang màu = 3 trang đen trắng, quy đổi về số trang A4 tương tự&lt;/font&gt;&lt;/div&gt;&lt;div style=&quot;text-align: justify; font-size: 13px;&quot;&gt;&lt;span style=&quot;font-weight: 400;&quot;&gt;&lt;font style=&quot;font-size: 13px;&quot;&gt;&lt;br&gt;&lt;/font&gt;&lt;/span&gt;&lt;/div&gt;&lt;div style=&quot;text-align: justify; font-size: 13px;&quot;&gt;&lt;span style=&quot;font-weight: 400;&quot;&gt;&lt;br&gt;&lt;/span&gt;&lt;/div&gt;" style="text;html=1;strokeColor=none;fillColor=none;spacing=5;spacingTop=-20;whiteSpace=wrap;overflow=hidden;rounded=0;" vertex="1" parent="1">
          <mxGeometry x="495" y="480" width="250" height="370" as="geometry" />
        </mxCell>
      </root>
    </mxGraphModel>
  </diagram>
</mxfile>
